<?xml version="1.0" encoding="iso-8859-1"?>
<!-- Generator: Adobe Illustrator 19.0.0, SVG Export Plug-In . SVG Version: 6.00 Build 0)  -->
<svg xmlns="http://www.w3.org/2000/svg" xmlns:xlink="http://www.w3.org/1999/xlink" version="1.1" id="Capa_1" x="0px" y="0px" viewBox="0 0 460 460" style="enable-background:new 0 0 460 460;" xml:space="preserve" width="512" height="512">
<g id="XMLID_1617_">
	<path id="XMLID_87_" style="fill:#323436;" d="M356.727,352.088l-99.82,35.74c-17.4,6.23-36.414,6.23-53.814,0l-99.82-35.74   C95.313,349.238,90,341.679,90,333.206V156.858c0-11.073,8.954-20.05,20-20.05h240c11.046,0,20,8.977,20,20.05v176.348   C370,341.679,364.687,349.238,356.727,352.088z"/>
	<path id="XMLID_31_" style="fill:#242627;" d="M450.324,158.954L233.267,215.72c-2.142,0.56-4.392,0.56-6.534,0L9.676,158.954   C3.977,157.464,0,152.303,0,146.398v-10.025l226.733-59.296c2.142-0.56,4.392-0.56,6.534,0L460,136.373v10.025   C460,152.303,456.023,157.464,450.324,158.954z"/>
	<path id="XMLID_24_" style="fill:#4A4C4E;" d="M450.324,149.798l-217.057,56.766c-2.142,0.56-4.392,0.56-6.534,0L9.676,149.798   C3.977,148.307,0,143.147,0,137.242v0c0-5.905,3.977-11.065,9.676-12.556L226.733,67.92c2.142-0.56,4.392-0.56,6.534,0   l217.057,56.766c5.699,1.491,9.676,6.651,9.676,12.556v0C460,143.147,456.023,148.307,450.324,149.798z"/>
	<path id="XMLID_1594_" style="fill:#C18F2B;" d="M380,237.059v135.339c0,2.768-2.239,5.013-5,5.013h-10c-2.761,0-5-2.244-5-5.013   V237.059h5v-62.072c0-2.348-1.662-4.409-3.952-4.901l-132.096-28.377c-2.7-0.58-4.42-3.245-3.841-5.952   c0.579-2.706,3.232-4.433,5.937-3.851l132.095,28.377c6.87,1.476,11.857,7.659,11.857,14.704v62.072H380z"/>
	<path id="XMLID_1593_" style="fill:#876531;" d="M360,239.763c2.944-1.71,6.353-2.704,10-2.704s7.056,0.995,10,2.704v34.692   c-2.944,1.71-6.353,2.704-10,2.704s-7.056-0.994-10-2.704V239.763z"/>
	<path id="XMLID_1592_" style="fill:#C18F2B;" d="M390,237.059c0,11.073-8.954,20.05-20,20.05s-20-8.977-20-20.05   s8.954-20.05,20-20.05S390,225.986,390,237.059z"/>
	<path id="XMLID_4_" style="fill:#323436;" d="M260,137.242c0,8.305-13.431,15.038-30,15.038s-30-6.733-30-15.038   c0-8.305,13.431-15.038,30-15.038S260,128.937,260,137.242z"/>
</g>















</svg>
